<svg width="3665" height="562" viewBox="0 0 3665 562" fill="none" xmlns="http://www.w3.org/2000/svg">
<path d="M17.6097 301.24L155.34 189.43C188.32 162.66 207.41 122.68 207.41 80.4598V69.6298C207.41 31.2598 175.99 0.159811 137.23 0.159811H19.8597C9.40973 0.119811 0.969727 8.46981 0.969727 18.7698V293.45C0.979727 301.97 10.9297 306.63 17.6097 301.24Z" fill="white"/>
<path d="M645.93 51.3301L438.72 51.3701C419.92 51.3701 404.35 65.2801 401.93 83.2501C401.56 85.8001 401.68 88.4801 402.01 91.0401V91.4101C403.32 100.78 408.81 109.09 416.96 114L386.6 122.52C350.79 132.54 317.49 149.77 288.69 173.09L8.76047 399.62C3.84047 403.59 0.980469 409.6 0.980469 415.88V551.78C0.980469 557.3 5.57046 561.84 11.1405 561.84H178.78C184.06 561.84 188.33 557.82 188.9 552.63C193.53 510.49 229.62 477.64 273.42 477.64C317.22 477.64 353.31 510.45 357.94 552.63C358.51 557.82 362.77 561.84 368.06 561.84H407.68C411.61 561.84 415.22 559.57 416.9 556.08L573.85 227.54C587.41 199.15 606.75 173.89 630.67 153.24L650.86 135.8C654.18 132.92 656.11 128.78 656.11 124.4V61.3801C656.09 55.8401 651.5 51.3301 645.93 51.3301ZM517.17 129.93C503.61 129.93 492.59 119.02 492.59 105.6C492.59 92.1801 503.61 81.2701 517.17 81.2701C530.73 81.2701 541.75 92.1801 541.75 105.6C541.75 119.02 530.73 129.93 517.17 129.93Z" fill="white"/>
<path d="M1106.17 346.4H1106.23C1101.05 344.95 1100.67 337.94 1105.54 335.73C1141.1 319.69 1160.81 289.24 1160.81 244.02C1160.81 165 1093.67 124.39 1011.81 124.39H831.61C825.48 124.39 820.49 129.38 820.49 135.51V513.91C820.49 520.04 825.48 525.03 831.61 525.03H919.97C926.1 525.03 931.09 520.04 931.09 513.91V388.46H990.34C1029.25 388.46 1044.53 399.2 1046.74 432.48L1052.24 514.65C1052.62 520.46 1057.48 525.01 1063.36 525.01H1152.1C1158.61 525.01 1163.72 519.45 1163.15 513.01L1155.07 412.14C1152.72 375.51 1137.06 354.86 1106.17 346.4ZM991.54 299.78H931.16V212.87H991.54C1028.24 212.87 1047.94 228.09 1047.94 256.89C1047.94 285.69 1028.17 299.78 991.54 299.78Z" fill="white"/>
<path d="M1317.83 225.89H1230.6C1224.47 225.89 1219.48 230.88 1219.48 237.01V513.85C1219.48 519.98 1224.47 524.97 1230.6 524.97H1317.83C1323.96 524.97 1328.95 519.98 1328.95 513.85V237C1328.94 230.87 1324.02 225.89 1317.83 225.89Z" fill="white"/>
<path d="M1319.53 124.32H1228.89C1222.76 124.32 1217.77 129.31 1217.77 135.44V181.48C1217.77 187.61 1222.76 192.6 1228.89 192.6H1319.53C1325.66 192.6 1330.65 187.61 1330.65 181.48V135.44C1330.65 129.31 1325.72 124.32 1319.53 124.32Z" fill="white"/>
<path d="M1703.93 225.89H1616.32C1611.52 225.89 1607.22 228.98 1605.77 233.53L1545.64 416.64L1485.51 233.53C1483.99 228.98 1479.76 225.89 1474.96 225.89H1387.86C1380.09 225.89 1374.72 233.66 1377.44 240.92L1480.84 517.76C1482.48 522.12 1486.59 524.96 1491.26 524.96H1599.96C1604.57 524.96 1608.74 522.12 1610.38 517.76L1714.34 240.92C1717.07 233.65 1711.7 225.89 1703.93 225.89Z" fill="white"/>
<path d="M1897.78 219.13C1798.49 219.13 1732.99 281.22 1732.99 375.45C1732.99 469.68 1798.43 531.77 1897.78 531.77C1966.69 531.77 2022.08 500.82 2045.39 450.86C2048.74 443.66 2044.06 435.32 2036.17 434.82L1949.7 429.01C1945.47 428.69 1941.55 430.97 1939.34 434.57C1931.07 448.21 1915.09 457.31 1897.78 457.31C1867.9 457.31 1848.7 435.84 1847.57 402.55H2044.07C2050.01 402.55 2054.87 397.88 2055.19 391.94V390.68C2059.16 286.27 1992.01 219.13 1897.78 219.13ZM1847.5 344.94C1849.77 313.36 1868.97 293.59 1897.71 293.59C1923.67 293.59 1944.01 311.09 1946.22 344.94H1847.5Z" fill="white"/>
<path d="M2306.5 225.95V225.89H2279.21C2241.94 225.89 2218.83 247.87 2206.38 289.68L2204.99 236.75C2204.8 230.75 2199.87 225.95 2193.87 225.95H2109.18C2103.05 225.95 2098.06 230.94 2098.06 237.07V513.9C2098.06 520.03 2103.06 525.02 2109.18 525.02H2196.41C2202.54 525.02 2207.52 520.03 2207.52 513.9V367.05C2207.52 323.59 2226.72 303.26 2278.07 303.26H2306.49C2312.62 303.26 2317.61 298.27 2317.61 292.14V237.06C2317.62 230.94 2312.62 225.95 2306.5 225.95Z" fill="white"/>
<path d="M2596.03 123.63H2489.54C2483.41 123.63 2478.42 128.62 2478.42 134.75V514.04C2478.42 520.17 2483.41 525.16 2489.54 525.16H2599.44C2717.62 525.16 2783.81 453.35 2783.81 324.94C2783.81 196.01 2715.92 123.63 2596.03 123.63ZM2596.03 497.99H2506.66V150.72H2596.03C2698.41 150.72 2753.81 211.8 2753.81 324.92C2753.81 437.48 2698.36 497.99 2596.03 497.99Z" fill="white"/>
<path d="M2959.65 218.62C2879.94 218.62 2829.03 279.13 2829.03 375.26C2829.03 471.39 2879.94 531.9 2959.65 531.9C3039.36 531.9 3090.27 471.39 3090.27 375.26C3090.27 279.13 3039.36 218.62 2959.65 218.62ZM2959.65 505.38C2896.3 505.38 2857.83 455.61 2857.83 375.33C2857.83 295.05 2896.3 245.28 2959.65 245.28C3023 245.28 3061.47 295.05 3061.47 375.33C3061.47 455.61 3023 505.38 2959.65 505.38Z" fill="white"/>
<path d="M3376.46 424.02L3369.32 423.45C3364.14 423.07 3359.34 426.29 3357.89 431.22C3344.56 477.14 3309.89 505.31 3265.61 505.31C3202.83 505.31 3163.79 455.54 3163.79 375.26C3163.79 294.98 3202.82 245.21 3265.61 245.21C3308.18 245.21 3342.29 270.79 3356.06 313.87C3357.58 318.73 3362.38 321.77 3367.43 321.39L3374.13 320.88C3381.14 320.31 3386 313.49 3383.98 306.73C3368.06 253.04 3324.86 218.62 3265.68 218.62C3181.42 218.62 3135.06 287.02 3135.06 375.26C3135.06 463.5 3181.42 531.9 3265.68 531.9C3327.77 531.9 3370.72 494.26 3386.45 438.04C3388.27 431.35 3383.41 424.59 3376.46 424.02Z" fill="white"/>
<path d="M3551.73 366.8C3496.34 352.65 3467.47 335.72 3466.34 305.72C3464.63 269.53 3496.34 245.21 3540.43 245.21C3582.24 245.21 3615.78 267.38 3626.46 303.76C3628.04 309.07 3633.03 312.54 3638.52 311.91L3644.65 311.15C3651.35 310.33 3655.96 303.76 3654.12 297.25C3640.6 250.26 3597.59 218.61 3545.55 218.61C3480.49 218.61 3436.41 254.23 3437.54 306.28C3438.68 352.64 3478.85 371.9 3543.27 389.97C3581.17 400.71 3635.99 408.67 3635.99 449.91C3635.99 488.38 3599.23 505.3 3551.16 505.3C3502.4 505.3 3465.58 479.15 3458.06 442.58C3456.86 436.9 3451.87 432.85 3446.06 433.42L3439.43 434.05C3433.18 434.68 3428.5 440.37 3429.51 446.56C3437.53 496.58 3488 531.83 3551.16 531.83C3615.65 531.83 3664.28 504.1 3664.28 450.41C3664.29 402.99 3623.55 383.73 3551.73 366.8Z" fill="white"/>
</svg>
